<svg xmlns="http://www.w3.org/2000/svg" cx="50%" cy="50%" class="recharts-surface" width="210" height="210" viewBox="0 0 210 210" version="1.1"><defs><clipPath id="recharts3-clip"><rect x="5" y="5" height="200" width="200"/></clipPath></defs><g class="recharts-layer recharts-pie"><g class="recharts-layer recharts-pie-sector"><path name="ETH" cx="105" cy="105" fill="#6062a6" stroke="#6062a6" stroke-width="1" class="recharts-sector" d="M 105,25&#10;    A 80,80,0,&#10;    0,1,&#10;    105.33178441162497,184.9993119914428&#10;  L 105.30275327560778,177.99937219219154&#10;            A 73,73,0,&#10;            0,0,&#10;            105,32 Z" style="filter: none; cursor: pointer;"/></g><g class="recharts-layer recharts-pie-sector"><path name="USDC" cx="105" cy="105" fill="#2775CA" stroke="#2775CA" stroke-width="1" class="recharts-sector" d="M 102.5396465724782,184.96215768106612&#10;    A 80,80,0,&#10;    0,1,&#10;    102.20804026379994,25.048733838472344&#10;  L 102.45233674071744,32.044469627606006&#10;            A 73,73,0,&#10;            0,0,&#10;            102.75492749738636,177.96546888397285 Z" style="filter: none; cursor: pointer;"/></g><g class="recharts-layer recharts-pie-sector"/><g class="recharts-layer recharts-pie-sector"/></g><text x="50%" y="50%" fill="white" text-anchor="middle" dominant-baseline="middle">$ZLP Pool</text></svg>